<?xml version="1.0" encoding="utf-8"?>
<!-- Generator: Adobe Illustrator 15.0.0, SVG Export Plug-In . SVG Version: 6.00 Build 0)  -->
<!DOCTYPE svg PUBLIC "-//W3C//DTD SVG 1.1//EN" "http://www.w3.org/Graphics/SVG/1.1/DTD/svg11.dtd">
<svg version="1.1" id="Layer_1" xmlns="http://www.w3.org/2000/svg" xmlns:xlink="http://www.w3.org/1999/xlink" x="0px" y="0px"
	 width="296px" height="146.667px" viewBox="0 0 296 146.667" enable-background="new 0 0 296 146.667" xml:space="preserve">
<g>
	<path fill="#CDDC39" d="M291.167,142.667h-152c-0.829,0-1.5-0.672-1.5-1.5v-135c0-0.829,0.671-1.5,1.5-1.5h152
		c0.828,0,1.5,0.671,1.5,1.5v135C292.667,141.995,291.995,142.667,291.167,142.667z M140.667,139.667h149v-132h-149V139.667z"/>
</g>
<g>
	<path fill="#B3B3B3" d="M127.667,32.667h-122c-0.552,0-1-0.448-1-1v-26c0-0.552,0.448-1,1-1h122c0.552,0,1,0.448,1,1v26
		C128.667,32.219,128.219,32.667,127.667,32.667z M6.667,30.667h120v-24h-120V30.667z"/>
</g>
<g>
	<path fill="#B3B3B3" d="M127.667,141.667h-122c-0.552,0-1-0.447-1-1v-97c0-0.552,0.448-1,1-1h122c0.552,0,1,0.448,1,1v97
		C128.667,141.219,128.219,141.667,127.667,141.667z M6.667,139.667h120v-95h-120V139.667z"/>
</g>
<g>
	<defs>
		<rect id="SVGID_1_" x="145.667" y="11.667" width="141" height="122"/>
	</defs>
	<clipPath id="SVGID_2_">
		<use xlink:href="#SVGID_1_"  overflow="visible"/>
	</clipPath>
	<rect x="136.667" y="-8.333" clip-path="url(#SVGID_2_)" fill="#E6E6E6" width="162" height="164"/>
	<polygon clip-path="url(#SVGID_2_)" fill="#FFFFFF" points="196.333,61.627 355.667,-32.806 355.667,-39.578 193.522,56.379 	"/>
	<polygon clip-path="url(#SVGID_2_)" fill="#FFFFFF" points="196.667,74.513 203.018,76.133 203.696,73.615 196.667,72.078 	"/>
	<path clip-path="url(#SVGID_2_)" fill="#FFFFFF" d="M161.266,67.633c0,10.169,8.244,18.413,18.414,18.413
		c10.172,0,18.414-8.244,18.414-18.413c0-10.172-8.242-18.416-18.414-18.416C169.51,49.217,161.266,57.461,161.266,67.633z
		 M193.092,67.815c0,7.407-6.006,13.412-13.412,13.412c-7.408,0-13.41-6.005-13.41-13.412c0-7.409,6.002-13.411,13.41-13.411
		C187.086,54.404,193.092,60.406,193.092,67.815z"/>
	<circle clip-path="url(#SVGID_2_)" fill="#CDDC39" cx="179.68" cy="67.739" r="10.598"/>
	<polygon clip-path="url(#SVGID_2_)" fill="#FFFFFF" points="187.049,50.807 188.77,43.325 186.227,42.973 184.725,50.002 	"/>
	<polygon clip-path="url(#SVGID_2_)" fill="#FFFFFF" points="165.168,38.317 203.645,47.312 206.03,49.217 208.192,47.938 
		204.454,45.3 163.577,35.67 	"/>
	<path clip-path="url(#SVGID_2_)" fill="#FFFFFF" d="M174.231,50.038c0,0-1.762-0.186-2.928-1.984
		c-1.164-1.8-32.174-53.553-32.174-53.553l0.693,11.324l27.461,46.25c0,0,0.893,1.062,0,1.939L174.231,50.038z"/>
	<polygon clip-path="url(#SVGID_2_)" fill="#FFFFFF" points="163.624,60.543 141.667,54.014 141.667,56.941 163.225,62.898 	"/>
	<polygon clip-path="url(#SVGID_2_)" fill="#FFFFFF" points="137.667,89.2 163.428,72.819 164.995,75.358 137.667,91.658 	"/>
	<polygon clip-path="url(#SVGID_2_)" fill="#FFFFFF" points="137.667,93.579 164.295,76.646 165.77,79.11 137.667,95.924 	"/>
	<polygon clip-path="url(#SVGID_2_)" fill="#FFFFFF" points="139.874,121.819 160.508,40.666 158.786,37.762 139.823,113.776 	"/>
	<polygon clip-path="url(#SVGID_2_)" fill="#FFFFFF" points="154.795,153.667 173.317,82.667 175.645,82.667 156.68,153.667 	"/>
	<polygon clip-path="url(#SVGID_2_)" fill="#FFFFFF" points="227.29,153.667 212.792,129.753 186.78,84.68 188.942,83.675 
		230.678,153.667 	"/>
	<polygon clip-path="url(#SVGID_2_)" fill="#FFFFFF" points="191.75,81.411 189.645,82.827 232.053,153.667 235.125,153.667 	"/>
	<polygon clip-path="url(#SVGID_2_)" fill="#FFFFFF" points="204.86,76.133 356.147,115.082 356.198,110.848 205.784,72.078 	"/>
	<polygon clip-path="url(#SVGID_2_)" fill="#FFFFFF" points="355.667,105.203 296.772,2.158 295.405,3.043 337.397,76.311 
		293.737,4.086 291.956,5.147 354.946,110.596 355.667,110.848 	"/>
	<polygon clip-path="url(#SVGID_2_)" fill="#FFFFFF" points="185.667,40.857 185.667,38.739 210.075,-59.052 223.604,-110.908 
		225.713,-109.426 186.68,41.42 	"/>
	<polygon clip-path="url(#SVGID_2_)" fill="#FFFFFF" points="188.483,42.126 186.78,41.703 226.233,-109.351 227.61,-106.666 	"/>
	<path clip-path="url(#SVGID_2_)" fill="#FFFFFF" d="M162.282,32.902l5.027-17.57l1.879-2.665h2.857l18.264,4.293l0.549-2.211
		l-17.223-4.564c0,0-3.283-0.856-1.271-2.548c2.008-1.697,23.814-13.843,23.814-13.843l0.734-2.89l-27.83,15.927l5.148-20.164h0.779
		l20.002,4.552c0,0,1.918-0.181,2.432-2.196l-22.541-5.635l6.031-22.912l12.984-48.5l-2.717-0.752L172.68-17.666l-12.449,47.348"/>
	
		<line clip-path="url(#SVGID_2_)" fill="none" stroke="#FFFFFF" stroke-width="5" stroke-miterlimit="10" x1="151.299" y1="87.209" x2="197.444" y2="98.853"/>
	
		<line clip-path="url(#SVGID_2_)" fill="none" stroke="#FFFFFF" stroke-width="5" stroke-miterlimit="10" x1="158.499" y1="154.309" x2="174.231" y2="92.997"/>
	
		<line clip-path="url(#SVGID_2_)" fill="none" stroke="#FFFFFF" stroke-width="5" stroke-miterlimit="10" x1="139.874" y1="137.799" x2="209.999" y2="155.581"/>
	
		<line clip-path="url(#SVGID_2_)" fill="none" stroke="#FFFFFF" stroke-width="5" stroke-miterlimit="10" x1="184.958" y1="154.309" x2="209.999" y2="50.754"/>
	
		<line clip-path="url(#SVGID_2_)" fill="none" stroke="#FFFFFF" stroke-width="5" stroke-miterlimit="10" x1="139.129" y1="110.282" x2="215.225" y2="129.758"/>
	
		<line clip-path="url(#SVGID_2_)" fill="none" stroke="#FFFFFF" stroke-width="5" stroke-miterlimit="10" x1="212.381" y1="155.581" x2="230.678" y2="81.731"/>
	
		<line clip-path="url(#SVGID_2_)" fill="none" stroke="#FFFFFF" stroke-width="5" stroke-miterlimit="10" x1="221.53" y1="132.933" x2="304.549" y2="153.465"/>
	
		<line clip-path="url(#SVGID_2_)" fill="none" stroke="#FFFFFF" stroke-width="5" stroke-miterlimit="10" x1="266.661" y1="155.581" x2="281.948" y2="95.924"/>
	
		<line clip-path="url(#SVGID_2_)" fill="none" stroke="#FFFFFF" stroke-width="5" stroke-miterlimit="10" x1="239.145" y1="153.465" x2="255.893" y2="89.2"/>
	
		<line clip-path="url(#SVGID_2_)" fill="none" stroke="#FFFFFF" stroke-width="5" stroke-miterlimit="10" x1="294.178" y1="155.581" x2="320.674" y2="51.586"/>
	
		<line clip-path="url(#SVGID_2_)" fill="none" stroke="#FFFFFF" stroke-width="5" stroke-miterlimit="10" x1="139.129" y1="58.455" x2="152.991" y2="62.898"/>
	
		<line clip-path="url(#SVGID_2_)" fill="none" stroke="#FFFFFF" stroke-width="5" stroke-miterlimit="10" x1="160.231" y1="36.411" x2="139.129" y2="30.062"/>
	
		<line clip-path="url(#SVGID_2_)" fill="none" stroke="#FFFFFF" stroke-width="5" stroke-miterlimit="10" x1="139.823" y1="2.158" x2="320.674" y2="48.555"/>
	
		<line clip-path="url(#SVGID_2_)" fill="none" stroke="#FFFFFF" stroke-width="5" stroke-miterlimit="10" x1="212.381" y1="45.461" x2="243.874" y2="-77.394"/>
	
		<line clip-path="url(#SVGID_2_)" fill="none" stroke="#FFFFFF" stroke-width="5" stroke-miterlimit="10" x1="231.795" y1="78.691" x2="243.874" y2="32.902"/>
	
		<line clip-path="url(#SVGID_2_)" fill="none" stroke="#FFFFFF" stroke-width="5" stroke-miterlimit="10" x1="257.137" y1="86.046" x2="263.04" y2="61.627"/>
	
		<line clip-path="url(#SVGID_2_)" fill="none" stroke="#FFFFFF" stroke-width="5" stroke-miterlimit="10" x1="263.04" y1="61.627" x2="277.034" y2="-5.5"/>
	
		<line clip-path="url(#SVGID_2_)" fill="none" stroke="#FFFFFF" stroke-width="5" stroke-miterlimit="10" x1="281.948" y1="93.032" x2="299.401" y2="17.53"/>
	
		<line clip-path="url(#SVGID_2_)" fill="none" stroke="#FFFFFF" stroke-width="5" stroke-miterlimit="10" x1="299.401" y1="17.53" x2="139.129" y2="-24.621"/>
	
		<line clip-path="url(#SVGID_2_)" fill="none" stroke="#FFFFFF" stroke-width="5" stroke-miterlimit="10" x1="243.874" y1="27.59" x2="263.04" y2="-47.197"/>
</g>
<path fill="#F2F2F2" d="M26.667,56.444c0,1.228-0.996,2.223-2.225,2.223h-4.551c-1.229,0-2.225-0.995-2.225-2.223v-4.555
	c0-1.228,0.996-2.223,2.225-2.223h4.551c1.229,0,2.225,0.995,2.225,2.223V56.444z"/>
<path fill="#F2F2F2" d="M26.667,74.444c0,1.228-0.996,2.223-2.225,2.223h-4.551c-1.229,0-2.225-0.995-2.225-2.223v-4.555
	c0-1.228,0.996-2.223,2.225-2.223h4.551c1.229,0,2.225,0.995,2.225,2.223V74.444z"/>
<g>
	<g>
		<path fill="#6889FF" d="M21.743,75.803l-3.451-4.441c-0.282-0.365-0.216-0.891,0.146-1.174c0.365-0.284,0.891-0.218,1.174,0.147
			l2.703,3.479l3.412-5.695c0.238-0.396,0.751-0.523,1.145-0.287c0.396,0.236,0.525,0.75,0.288,1.145l-4.04,6.742L21.743,75.803z"/>
	</g>
</g>
<path fill="#F2F2F2" d="M26.667,92.444c0,1.228-0.996,2.223-2.225,2.223h-4.551c-1.229,0-2.225-0.995-2.225-2.223v-4.555
	c0-1.228,0.996-2.223,2.225-2.223h4.551c1.229,0,2.225,0.995,2.225,2.223V92.444z"/>
<path fill="#F2F2F2" d="M26.667,111.444c0,1.228-0.996,2.223-2.225,2.223h-4.551c-1.229,0-2.225-0.995-2.225-2.223v-4.555
	c0-1.228,0.996-2.223,2.225-2.223h4.551c1.229,0,2.225,0.995,2.225,2.223V111.444z"/>
<path fill="#F2F2F2" d="M26.667,128.444c0,1.228-0.996,2.223-2.225,2.223h-4.551c-1.229,0-2.225-0.995-2.225-2.223v-4.555
	c0-1.228,0.996-2.223,2.225-2.223h4.551c1.229,0,2.225,0.995,2.225,2.223V128.444z"/>
<g>
	<g>
		<path fill="#6889FF" d="M21.743,130.494l-3.451-4.442c-0.282-0.365-0.216-0.89,0.146-1.174c0.365-0.283,0.891-0.217,1.174,0.147
			l2.703,3.479l3.412-5.695c0.238-0.396,0.751-0.523,1.145-0.287c0.396,0.236,0.525,0.75,0.288,1.146l-4.04,6.742L21.743,130.494z"
			/>
	</g>
</g>
<rect x="11.667" y="10.667" fill="#F2F2F2" width="111" height="15"/>
<rect x="31.667" y="50.667" fill="#F2F2F2" width="88" height="7"/>
<rect x="31.667" y="68.667" fill="#F2F2F2" width="88" height="6"/>
<rect x="31.667" y="86.667" fill="#F2F2F2" width="88" height="7"/>
<rect x="31.667" y="105.667" fill="#F2F2F2" width="88" height="6"/>
<rect x="31.667" y="122.667" fill="#F2F2F2" width="88" height="7"/>
<g>
	<g>
		<path fill="#6889FF" d="M109.973,20.085c-1.805,0-3.271-1.468-3.271-3.272c0-1.801,1.467-3.268,3.271-3.268
			c1.803,0,3.27,1.467,3.27,3.268C113.243,18.618,111.776,20.085,109.973,20.085z M109.973,14.464c-1.297,0-2.352,1.054-2.352,2.349
			c0,1.297,1.055,2.351,2.352,2.351c1.295,0,2.35-1.054,2.35-2.351C112.323,15.518,111.268,14.464,109.973,14.464z"/>
	</g>
	<g>
		<path fill="#6889FF" d="M115.17,22.472c-0.119,0-0.236-0.045-0.326-0.134l-3.045-3.048c-0.182-0.181-0.182-0.471,0-0.651
			c0.178-0.18,0.469-0.18,0.65,0l3.045,3.048c0.182,0.18,0.182,0.47,0,0.651C115.407,22.427,115.288,22.472,115.17,22.472z"/>
	</g>
</g>
</svg>
